<svg aria-hidden="true" style="position: absolute; width: 0; height: 0; overflow: hidden;" version="1.1" xmlns="http://www.w3.org/2000/svg" xmlns:xlink="http://www.w3.org/1999/xlink">
<defs>

<symbol id="icon-sign-out" viewBox="0 0 32 32">
<path d="M25.293 9.293l-1.414 1.414 4.293 4.293h-14.172v2h14.172l-4.293 4.293 1.414 1.414 6.707-6.707-6.707-6.707z"></path>
<path d="M22 30h-20v-28h20v2h2v-3c0-0.553-0.447-1-1-1h-22c-0.553 0-1 0.447-1 1v30c0 0.553 0.447 1 1 1h22c0.553 0 1-0.447 1-1v-3h-2v2z"></path>
</symbol>
<symbol id="icon-close" viewBox="0 0 32 32">
<path d="M31.166 3.888l-3.055-3.055-12.112 12.112-12.112-12.112-3.055 3.055 12.112 12.112-12.112 12.112 3.055 3.055 12.112-12.112 12.112 12.112 3.055-3.055-12.112-12.112 12.112-12.112z"></path>
</symbol>
<symbol id="icon-login" viewBox="0 0 32 32">
    <path d="M18 22.082v-1.649c2.203-1.241 4-4.337 4-7.432 0-4.971 0-9-6-9s-6 4.029-6 9c0 3.096 1.797 6.191 4 7.432v1.649C7.216 22.637 2 25.97 2 30h28c0-4.03-5.216-7.364-12-7.918z"/>
</symbol>
<symbol id="icon-users" viewBox="0 0 36 32">
    <path d="M24 24.082v-1.649c2.203-1.241 4-4.337 4-7.432 0-4.971 0-9-6-9s-6 4.029-6 9c0 3.096 1.797 6.191 4 7.432v1.649C13.216 24.637 8 27.97 8 32h28c0-4.03-5.216-7.364-12-7.918z"/>
    <path d="M10.225 24.854c1.728-1.13 3.877-1.989 6.243-2.513a11.33 11.33 0 0 1-1.265-1.844c-.95-1.726-1.453-3.627-1.453-5.497 0-2.689 0-5.228.956-7.305.928-2.016 2.598-3.265 4.976-3.734C19.153 1.571 17.746 0 14 0 8 0 8 4.029 8 9c0 3.096 1.797 6.191 4 7.432v1.649c-6.784.555-12 3.888-12 7.918h8.719c.454-.403.956-.787 1.506-1.146z"/>
</symbol>
<symbol id="icon-signup" viewBox="0 0 32 32">
    <path d="M12 23c0-4.726 2.996-8.765 7.189-10.319C19.698 11.539 20 10.27 20 9c0-4.971 0-9-6-9S8 4.029 8 9c0 3.096 1.797 6.191 4 7.432v1.649c-6.784.555-12 3.888-12 7.918h12.416a10.962 10.962 0 0 1-.416-3z"/>
    <path d="M23 14c-4.971 0-9 4.029-9 9s4.029 9 9 9 9-4.029 9-9-4.029-9-9-9zm5 10h-4v4h-2v-4h-4v-2h4v-4h2v4h4v2z"/>
</symbol>
<symbol id="icon-admins-cards" viewBox="0 0 32 32">
    <path d="M29 4h-9a4 4 0 0 0-8 0H3a1 1 0 0 0-1 1v26a1 1 0 0 0 1 1h26a1 1 0 0 0 1-1V5a1 1 0 0 0-1-1zM16 2a2 2 0 1 1 .001 3.999A2 2 0 0 1 16 2zm12 28H4V6h4v3a1 1 0 0 0 1 1h14a1 1 0 0 0 1-1V6h4v24z"/>
    <path d="M14 26.828l-6.414-7.414 1.828-1.828L14 21.172l8.586-7.586 1.829 1.828z"/>
</symbol>
<symbol id="icon-home" viewBox="0 0 32 32">
<path d="M32 19l-6-6v-9h-4v5l-6-6-16 16v1h4v10h10v-6h4v6h10v-10h4z"></path>
</symbol>
</defs>
</svg>
